<?xml version="1.0" encoding="UTF-8"?>
<svg width="2676px" height="787px" viewBox="0 0 2676 787" version="1.1" xmlns="http://www.w3.org/2000/svg" xmlns:xlink="http://www.w3.org/1999/xlink">
    <!-- Generator: Sketch 40.3 (33839) - http://www.bohemiancoding.com/sketch -->
    <title>Combined Shape</title>
    <desc>Created with Sketch.</desc>
    <defs></defs>
    <g id="Page-1" stroke="none" stroke-width="1" fill="none" fill-rule="evenodd">
        <g id="Desktop-HD" transform="translate(0.000000, -453.000000)" fill="#363F58">
            <path d="M2676,725.95629 C2690.81571,733.366354 2707.53313,737.535714 2725.22397,737.535714 C2786.09898,737.535714 2835.44793,688.167113 2835.44793,627.267857 C2835.44793,566.368601 2786.09898,517 2725.22397,517 C2719.98724,517 2714.83581,517.365336 2709.79376,518.07192 C2692.54092,479.70988 2654.00042,453 2609.22397,453 C2559.85656,453 2518.0694,485.467831 2504.03493,530.223025 C2484.27872,511.490607 2457.5927,500 2428.22397,500 C2409.90076,500 2392.62181,504.472759 2377.41855,512.386431 C2352.63333,484.539289 2316.52467,467 2276.32112,467 C2224.40211,467 2179.31225,496.250672 2156.61969,539.177652 C2142.1362,522.525925 2120.79684,512 2097,512 C2073.50908,512 2052.41287,522.257028 2037.94228,538.538476 C2017.72679,514.947416 1987.72026,500 1954.22397,500 C1928.08241,500 1904.06638,509.104066 1885.17112,524.315766 C1865.30787,504.938454 1838.15955,493 1808.22397,493 C1773.14857,493 1741.89973,509.389955 1721.71256,534.931875 C1701.59898,513.434386 1672.97973,500 1641.22397,500 C1603.59443,500 1570.36903,518.863849 1550.48132,547.654444 C1545.94436,546.860493 1541.27677,546.44652 1536.51254,546.44652 C1516.40459,546.44652 1498.01832,553.820815 1483.90858,566.013538 C1462.93492,529.550691 1423.59592,505 1378.52508,505 C1336.16808,505 1298.87344,526.683167 1277.12723,559.559263 C1258.77743,524.175052 1221.82277,500 1179.22397,500 C1160.90076,500 1143.62181,504.472759 1128.41855,512.386431 C1103.63333,484.539289 1067.52467,467 1027.32112,467 C974.642611,467 928.994509,497.112721 906.638237,541.070261 C892.181002,525.060624 871.264926,515 848,515 C825.2095,515 804.673029,524.654489 790.254229,540.098287 C770.037323,515.608223 739.452668,500 705.223967,500 C679.082415,500 655.066385,509.104066 636.171116,524.315766 C616.307868,504.938454 589.15955,493 559.223967,493 C524.674498,493 493.837693,508.902134 473.628064,533.789136 C453.576916,512.959355 425.413249,500 394.223967,500 C350.227375,500 312.2514,525.787588 294.574933,563.078186 C282.725234,556.650366 269.150725,553 254.723967,553 C231.014994,553 209.607752,562.858807 194.375069,578.702052 C182.3879,527.848578 136.730448,490 82.2365053,490 C18.6069898,490 -32.9749242,541.602453 -32.9749242,605.257305 C-32.9749242,636.691195 -20.396371,665.186037 0,685.9792 L0,1240 L2676,1240 L2676,725.956292 Z" id="Combined-Shape"></path>
        </g>
    </g>
</svg>