<svg
   xmlns="http://www.w3.org/2000/svg"
   width="100"
   height="100"
   version="1.1"
   id="logo">
   <g style="fill:#fff">
	   <circle
		 id="dot"
		 cx="28.90625"
		 cy="89.697891"
		 r="10" />
	   <path
		 
		 d="M 28.794922,0.26367188 A 10.001,10.001 0 0 0 20.078125,15.089844 L 62.267578,94.310547 A 10.001,10.001 0 1 0 79.921875,84.910156 L 37.732422,5.6894531 a 10.001,10.001 0 0 0 -8.9375,-5.42578122 z"
		 id="n1"/>
	   <path
		
		 d="M 70.943359,0.24804688 A 10.001,10.001 0 0 0 61.09375,10.390625 v 79.21875 a 10.001,10.001 0 1 0 20,0 V 10.390625 A 10.001,10.001 0 0 0 70.943359,0.24804688 Z"
		 id="n2" />
	   <path
		 d="M 28.753906,0.24804688 A 10.001,10.001 0 0 0 18.90625,10.390625 v 50.990234 a 10.001,10.001 0 1 0 20,0 V 10.390625 A 10.001,10.001 0 0 0 28.753906,0.24804688 Z"
		 id="n3"/>
	</g>
</svg>